<svg width="67" height="65" viewBox="0 0 67 65" fill="none" xmlns="http://www.w3.org/2000/svg">
<path d="M0 2.23333C0 0.999899 0.999898 0 2.23333 0H64.7667C66.0001 0 67 0.999898 67 2.23333V62.5333C67 63.7668 66.0001 64.7667 64.7667 64.7667H2.23334C0.999899 64.7667 0 63.7668 0 62.5333V2.23333Z" fill="#FF8805"/>
<path d="M29.3105 64.5433V12.2328H37.7963V18.3407H38.2968C38.7418 17.4429 39.3695 16.4891 40.1799 15.4791C40.9903 14.4531 42.0868 13.5795 43.4693 12.8581C44.8519 12.1207 46.6157 11.752 48.761 11.752C51.5896 11.752 54.1401 12.4813 56.4122 13.9401C58.7007 15.3829 60.5125 17.5231 61.8471 20.3606C63.1979 23.182 63.8733 26.6447 63.8733 30.7486C63.8733 34.8044 63.214 38.2511 61.895 41.0886C60.5759 43.9258 58.7803 46.0901 56.508 47.5814C54.2354 49.0722 51.6611 49.8176 48.7849 49.8176C46.6873 49.8176 44.9472 49.4648 43.5647 48.7593C42.1822 48.0538 41.0698 47.2045 40.2276 46.2103C39.4013 45.2003 38.7577 44.2466 38.2968 43.349H37.9393V64.5433H29.3105ZM37.7724 30.7006C37.7724 33.0892 38.1062 35.1812 38.7736 36.9767C39.4569 38.7721 40.4342 40.1748 41.7054 41.1847C42.9926 42.1789 44.55 42.6755 46.3774 42.6755C48.2843 42.6755 49.8813 42.1626 51.1685 41.1369C52.4557 40.0944 53.425 38.6759 54.0765 36.8805C54.7439 35.0689 55.0777 33.009 55.0777 30.7006C55.0777 28.4081 54.7519 26.3722 54.1004 24.5927C53.4488 22.8133 52.4795 21.4186 51.1923 20.4086C49.9052 19.3987 48.3002 18.8937 46.3774 18.8937C44.534 18.8937 42.9688 19.3827 41.6816 20.3606C40.3945 21.3384 39.4172 22.7091 38.7497 24.4725C38.0982 26.2359 37.7724 28.3119 37.7724 30.7006Z" fill="white"/>
<path d="M18.312 51.1827C15.4173 51.1827 12.8264 50.4391 10.5394 48.9519C8.25241 47.4641 6.4452 45.3055 5.11778 42.4745C3.79036 39.6437 3.12665 36.2052 3.12665 32.159C3.12665 28.0647 3.79835 24.6103 5.14177 21.7955C6.50117 18.9647 8.33237 16.8297 10.6354 15.3903C12.9384 13.9349 15.5052 13.2073 18.336 13.2073C20.4951 13.2073 22.2703 13.5751 23.6617 14.3108C25.0531 15.0305 26.1566 15.9021 26.9722 16.9256C27.7879 17.9332 28.4196 18.8848 28.8674 19.7804H29.2272V0H37.9354V50.5349H29.3952V44.7294H28.8674C28.4196 45.6249 27.7719 46.5765 26.9243 47.584C26.0766 48.5759 24.9571 49.4232 23.5657 50.127C22.1743 50.8308 20.4231 51.1827 18.312 51.1827ZM20.735 44.0576C22.5742 44.0576 24.1415 43.5622 25.4369 42.5703C26.7323 41.5628 27.7159 40.1635 28.3876 38.3723C29.0593 36.5811 29.3952 34.4939 29.3952 32.111C29.3952 29.7281 29.0593 27.657 28.3876 25.8977C27.7319 24.1385 26.7563 22.7711 25.4609 21.7955C24.1814 20.8199 22.6061 20.3321 20.735 20.3321C18.7998 20.3321 17.1845 20.8359 15.8891 21.8435C14.5936 22.8511 13.6181 24.2424 12.9624 26.0176C12.3066 27.7929 11.9788 29.824 11.9788 32.111C11.9788 34.414 12.3066 36.4691 12.9624 38.2763C13.634 40.0675 14.6176 41.4826 15.913 42.5227C17.2245 43.5459 18.8318 44.0576 20.735 44.0576Z" fill="white"/>
<path d="M25.2603 60.3301C24.9791 60.3301 24.7191 60.2721 24.4804 60.156C24.2438 60.04 24.053 59.8704 23.908 59.6472C23.7651 59.4241 23.6937 59.1518 23.6937 58.8305C23.6937 58.6564 23.7216 58.4935 23.7774 58.3417C23.8332 58.1878 23.9314 58.0483 24.072 57.9233C24.2126 57.7984 24.4089 57.6912 24.6611 57.602C24.9155 57.5127 25.2402 57.4447 25.6352 57.3978C25.8718 57.371 26.0949 57.3398 26.3047 57.3041C26.5144 57.2684 26.6852 57.2148 26.8168 57.1434C26.9485 57.072 27.0143 56.9693 27.0143 56.8354V56.5275C27.0143 56.1325 26.8815 55.8156 26.616 55.5768C26.3504 55.3358 25.9967 55.2153 25.5549 55.2153C25.1933 55.2153 24.8776 55.2956 24.6076 55.4563C24.3375 55.6148 24.149 55.8379 24.0419 56.1258L23.841 56.0454C23.9213 55.8312 24.0452 55.646 24.2126 55.4898C24.3799 55.3336 24.5785 55.2131 24.8084 55.1283C25.0383 55.0435 25.2871 55.0011 25.5549 55.0011C25.816 55.0011 26.0492 55.0401 26.2545 55.1182C26.462 55.1941 26.6383 55.3012 26.7834 55.4396C26.9284 55.5757 27.0389 55.7364 27.1147 55.9216C27.1906 56.1068 27.2286 56.3088 27.2286 56.5275V60.223H27.0143V59.1786H26.9875C26.8804 59.4107 26.741 59.6138 26.5691 59.7878C26.3995 59.9596 26.2031 60.0935 25.98 60.1895C25.7591 60.2832 25.5192 60.3301 25.2603 60.3301ZM25.2603 60.1159C25.5861 60.1159 25.8818 60.0288 26.1474 59.8548C26.4129 59.6785 26.6238 59.4341 26.78 59.1217C26.9362 58.807 27.0143 58.4422 27.0143 58.0271V57.2505C26.9518 57.2974 26.876 57.3387 26.7867 57.3744C26.6997 57.4101 26.6004 57.4424 26.4888 57.4714C26.3794 57.4982 26.26 57.5216 26.1306 57.5417C26.0012 57.5618 25.8628 57.5808 25.7155 57.5986C25.2558 57.6522 24.8943 57.7336 24.631 57.843C24.3677 57.9523 24.1813 58.0896 24.072 58.2547C23.9626 58.4199 23.908 58.6118 23.908 58.8305C23.908 59.2188 24.0374 59.5301 24.2963 59.7644C24.5573 59.9987 24.8787 60.1159 25.2603 60.1159Z" fill="white"/>
<path d="M23.4202 60.223V55.0814H23.6345V60.223H23.4202ZM23.5273 54.1442C23.4693 54.1442 23.4191 54.123 23.3767 54.0806C23.3343 54.0382 23.3131 53.988 23.3131 53.9299C23.3131 53.8719 23.3343 53.8217 23.3767 53.7793C23.4191 53.7369 23.4693 53.7157 23.5273 53.7157C23.5854 53.7157 23.6356 53.7369 23.678 53.7793C23.7204 53.8217 23.7416 53.8719 23.7416 53.9299C23.7416 53.988 23.7204 54.0382 23.678 54.0806C23.6356 54.123 23.5854 54.1442 23.5273 54.1442Z" fill="white"/>
<path d="M23.0815 53.3676V60.223H22.8673V53.3676H23.0815Z" fill="white"/>
<path d="M20.8632 60.3301C20.4147 60.3301 20.0219 60.2129 19.685 59.9786C19.3502 59.7443 19.0903 59.4263 18.905 59.0246C18.7198 58.6229 18.6272 58.1699 18.6272 57.6656C18.6272 57.1612 18.7198 56.7082 18.905 56.3065C19.0925 55.9049 19.3469 55.5869 19.6682 55.3525C19.9896 55.1182 20.3522 55.0011 20.7561 55.0011C21.0552 55.0011 21.3319 55.0647 21.5863 55.1919C21.8429 55.3191 22.0661 55.4954 22.2558 55.7208C22.4454 55.9461 22.5927 56.2061 22.6976 56.5007C22.8047 56.793 22.8583 57.1055 22.8583 57.438V57.6522H18.7343V57.438H22.644C22.644 57.0251 22.5592 56.6513 22.3896 56.3166C22.22 55.9796 21.9924 55.7118 21.7068 55.5132C21.4211 55.3146 21.1043 55.2153 20.7561 55.2153C20.4035 55.2153 20.0844 55.3202 19.7988 55.53C19.5131 55.7397 19.2844 56.0254 19.1126 56.3869C18.9407 56.7484 18.8504 57.1568 18.8414 57.612V57.6388C18.8414 58.0873 18.9195 58.5002 19.0757 58.8773C19.2342 59.2522 19.464 59.5524 19.7653 59.7778C20.0666 60.0032 20.4325 60.1159 20.8632 60.1159C21.1801 60.1159 21.4457 60.0601 21.6599 59.9485C21.8764 59.8369 22.0493 59.7086 22.1788 59.5635C22.3104 59.4185 22.4075 59.2946 22.47 59.192L22.644 59.3125C22.5682 59.4419 22.4544 59.5859 22.3026 59.7443C22.1509 59.9027 21.9567 60.04 21.7202 60.156C21.4836 60.2721 21.198 60.3301 20.8632 60.3301Z" fill="white"/>
<path d="M18.3806 60.223V55.0814H18.5948V60.223H18.3806ZM18.4877 54.1442C18.4296 54.1442 18.3794 54.123 18.337 54.0806C18.2946 54.0382 18.2734 53.988 18.2734 53.9299C18.2734 53.8719 18.2946 53.8217 18.337 53.7793C18.3794 53.7369 18.4296 53.7157 18.4877 53.7157C18.5457 53.7157 18.5959 53.7369 18.6383 53.7793C18.6807 53.8217 18.7019 53.8719 18.7019 53.9299C18.7019 53.988 18.6807 54.0382 18.6383 54.0806C18.5959 54.123 18.5457 54.1442 18.4877 54.1442Z" fill="white"/>
<path d="M14.7187 56.7685V60.223H14.5045V55.0814H14.7187V55.8982H14.7455C14.866 55.6304 15.0635 55.4162 15.338 55.2555C15.6147 55.0948 15.9305 55.0145 16.2853 55.0145C16.629 55.0145 16.9325 55.0892 17.1958 55.2387C17.4591 55.3883 17.6656 55.5947 17.8151 55.858C17.9646 56.1213 18.0393 56.4248 18.0393 56.7685V60.223H17.8251V56.7685C17.8251 56.3132 17.6823 55.9428 17.3966 55.6572C17.111 55.3715 16.7406 55.2287 16.2853 55.2287C15.9818 55.2287 15.7118 55.2945 15.4753 55.4262C15.2409 55.5579 15.0557 55.7397 14.9196 55.9718C14.7857 56.2039 14.7187 56.4695 14.7187 56.7685Z" fill="white"/>
<path d="M13.9499 60.223V55.0814H14.1641V60.223H13.9499ZM14.057 54.1442C13.999 54.1442 13.9488 54.123 13.9064 54.0806C13.864 54.0382 13.8428 53.988 13.8428 53.9299C13.8428 53.8719 13.864 53.8217 13.9064 53.7793C13.9488 53.7369 13.999 53.7157 14.057 53.7157C14.115 53.7157 14.1652 53.7369 14.2076 53.7793C14.25 53.8217 14.2712 53.8719 14.2712 53.9299C14.2712 53.988 14.25 54.0382 14.2076 54.0806C14.1652 54.123 14.115 54.1442 14.057 54.1442Z" fill="white"/>
<path d="M11.4713 60.3301C11.0652 60.3301 10.7137 60.2141 10.4169 59.982C10.1201 59.7477 9.89137 59.4297 9.7307 59.028C9.57002 58.6263 9.48969 58.1722 9.48969 57.6656C9.48969 57.1613 9.57114 56.7083 9.73404 56.3066C9.89695 55.9049 10.1268 55.5869 10.4236 55.3526C10.7204 55.1183 11.0696 55.0011 11.4713 55.0011C11.7436 55.0011 11.9946 55.058 12.2245 55.1718C12.4543 55.2834 12.6541 55.4441 12.8237 55.6538C12.9933 55.8614 13.1227 56.108 13.212 56.3936H13.2387V53.3676H13.453V60.223H13.2387V58.9376H13.212C13.1182 59.221 12.9877 59.4676 12.8203 59.6774C12.653 59.8849 12.4543 60.0456 12.2245 60.1594C11.9969 60.2732 11.7458 60.3301 11.4713 60.3301ZM11.4713 60.1159C11.8351 60.1159 12.1486 60.0088 12.4119 59.7945C12.6775 59.5781 12.8817 59.2857 13.0245 58.9175C13.1673 58.5471 13.2387 58.1298 13.2387 57.6656C13.2387 57.2014 13.1662 56.7853 13.0212 56.417C12.8783 56.0466 12.6742 55.7543 12.4086 55.54C12.1453 55.3236 11.8328 55.2153 11.4713 55.2153C11.1098 55.2153 10.7963 55.3236 10.5307 55.54C10.2674 55.7543 10.0632 56.0466 9.91815 56.417C9.77533 56.7853 9.70392 57.2014 9.70392 57.6656C9.70392 58.1298 9.77533 58.5471 9.91815 58.9175C10.061 59.2857 10.264 59.5781 10.5274 59.7945C10.7929 60.0088 11.1076 60.1159 11.4713 60.1159Z" fill="white"/>
<path d="M48.8918 61.6274C48.8047 61.6274 48.7121 61.6151 48.6139 61.5906C48.5157 61.5683 48.4164 61.5359 48.316 61.4935L48.3963 61.3061C48.6173 61.3998 48.8181 61.4333 48.9989 61.4065C49.1819 61.3819 49.3425 61.2982 49.4809 61.1554C49.6215 61.0126 49.7375 60.8129 49.829 60.5562L50.1035 59.793L48.229 54.5577H48.4566L50.1972 59.4315H50.224L51.9646 54.5577H52.1923L50.0299 60.6366C49.954 60.8508 49.8592 61.0316 49.7453 61.1789C49.6315 61.3261 49.5021 61.4377 49.357 61.5136C49.2142 61.5895 49.0591 61.6274 48.8918 61.6274Z" fill="white"/>
<path d="M46.5354 59.8064C46.2542 59.8064 45.9943 59.7484 45.7555 59.6323C45.5189 59.5163 45.3281 59.3467 45.1831 59.1235C45.0403 58.9004 44.9689 58.6281 44.9689 58.3068C44.9689 58.1327 44.9967 57.9698 45.0525 57.8181C45.1083 57.6641 45.2065 57.5246 45.3471 57.3996C45.4877 57.2747 45.6841 57.1676 45.9362 57.0783C46.1906 56.989 46.5153 56.921 46.9103 56.8741C47.1469 56.8473 47.37 56.8161 47.5798 56.7804C47.7896 56.7447 47.9603 56.6911 48.092 56.6197C48.2236 56.5483 48.2894 56.4456 48.2894 56.3117V56.0038C48.2894 55.6088 48.1567 55.2919 47.8911 55.0531C47.6256 54.8121 47.2718 54.6916 46.83 54.6916C46.4685 54.6916 46.1527 54.772 45.8827 54.9326C45.6127 55.0911 45.4241 55.3142 45.317 55.6021L45.1161 55.5218C45.1965 55.3075 45.3203 55.1223 45.4877 54.9661C45.6551 54.8099 45.8537 54.6894 46.0835 54.6046C46.3134 54.5198 46.5622 54.4774 46.83 54.4774C47.0911 54.4774 47.3243 54.5164 47.5296 54.5945C47.7371 54.6704 47.9134 54.7775 48.0585 54.9159C48.2035 55.052 48.314 55.2127 48.3899 55.3979C48.4657 55.5831 48.5037 55.7851 48.5037 56.0038V59.6993H48.2894V58.6549H48.2627C48.1556 58.887 48.0161 59.0901 47.8442 59.2641C47.6746 59.436 47.4783 59.5699 47.2551 59.6658C47.0342 59.7595 46.7943 59.8064 46.5354 59.8064ZM46.5354 59.5922C46.8612 59.5922 47.1569 59.5051 47.4225 59.3311C47.688 59.1548 47.8989 58.9104 48.0551 58.598C48.2113 58.2834 48.2894 57.9185 48.2894 57.5034V56.7268C48.227 56.7737 48.1511 56.815 48.0618 56.8507C47.9748 56.8864 47.8755 56.9187 47.7639 56.9477C47.6546 56.9745 47.5352 56.998 47.4057 57.018C47.2763 57.0381 47.138 57.0571 46.9907 57.0749C46.531 57.1285 46.1694 57.21 45.9061 57.3193C45.6428 57.4287 45.4565 57.5659 45.3471 57.731C45.2378 57.8962 45.1831 58.0881 45.1831 58.3068C45.1831 58.6951 45.3125 59.0064 45.5714 59.2407C45.8325 59.475 46.1538 59.5922 46.5354 59.5922Z" fill="white"/>
<path d="M44.9381 52.8439V59.6993H44.7239V52.8439H44.9381Z" fill="white"/>
<path d="M44.4119 52.8439V59.6993H44.1977V52.8439H44.4119Z" fill="white"/>
<path d="M43.6431 59.6993V54.5577H43.8573V59.6993H43.6431ZM43.7502 53.6205C43.6921 53.6205 43.6419 53.5993 43.5995 53.5569C43.5571 53.5145 43.5359 53.4643 43.5359 53.4062C43.5359 53.3482 43.5571 53.298 43.5995 53.2556C43.6419 53.2132 43.6921 53.192 43.7502 53.192C43.8082 53.192 43.8584 53.2132 43.9008 53.2556C43.9432 53.298 43.9644 53.3482 43.9644 53.4062C43.9644 53.4643 43.9432 53.5145 43.9008 53.5569C43.8584 53.5993 43.8082 53.6205 43.7502 53.6205Z" fill="white"/>
<path d="M39.6473 61.6274V54.5577H39.8616V55.8699H39.8883C39.9821 55.5843 40.1126 55.3377 40.28 55.1301C40.4474 54.9226 40.6449 54.7619 40.8725 54.6481C41.1023 54.5343 41.3545 54.4774 41.629 54.4774C42.0351 54.4774 42.3855 54.5945 42.6801 54.8289C42.9769 55.0609 43.2056 55.3778 43.3663 55.7795C43.5292 56.1812 43.6106 56.6353 43.6106 57.1419C43.6106 57.6462 43.5292 58.0992 43.3663 58.5009C43.2034 58.9026 42.9735 59.2206 42.6767 59.4549C42.3799 59.6892 42.0307 59.8064 41.629 59.8064C41.3567 59.8064 41.1057 59.7506 40.8758 59.639C40.646 59.5252 40.4462 59.3646 40.2766 59.157C40.107 58.9472 39.9776 58.6995 39.8883 58.4139H39.8616V61.6274H39.6473ZM39.8616 57.1419C39.8616 57.6061 39.933 58.0234 40.0758 58.3938C40.2209 58.762 40.425 59.0544 40.6884 59.2708C40.9539 59.4851 41.2675 59.5922 41.629 59.5922C41.9905 59.5922 42.3029 59.4851 42.5662 59.2708C42.8318 59.0544 43.036 58.762 43.1788 58.3938C43.3239 58.0234 43.3964 57.6061 43.3964 57.1419C43.3964 56.6777 43.325 56.2615 43.1822 55.8933C43.0393 55.5229 42.8352 55.2305 42.5696 55.0163C42.3063 54.7998 41.9927 54.6916 41.629 54.6916C41.2652 54.6916 40.9506 54.7998 40.685 55.0163C40.4217 55.2305 40.2186 55.5229 40.0758 55.8933C39.933 56.2615 39.8616 56.6777 39.8616 57.1419Z" fill="white"/>
</svg>
